<?xml version="1.0" encoding="UTF-8"?>
<svg xmlns="http://www.w3.org/2000/svg" xmlns:xlink="http://www.w3.org/1999/xlink" width="128px" height="128px" viewBox="0 0 128 128" version="1.1">
<g id="surface1">
<path style=" stroke:none;fill-rule:nonzero;fill:rgb(23.137255%,53.333333%,76.470588%);fill-opacity:1;" d="M 128 113.777344 C 128 121.632812 121.632812 128 113.777344 128 L 14.222656 128 C 6.367188 128 0 121.632812 0 113.777344 L 0 14.222656 C 0 6.367188 6.367188 0 14.222656 0 L 113.777344 0 C 121.632812 0 128 6.367188 128 14.222656 Z M 128 113.777344 "/>
<path style=" stroke:none;fill-rule:nonzero;fill:rgb(100%,100%,100%);fill-opacity:1;" d="M 58.53125 39.734375 L 52.027344 39.734375 C 46.738281 39.734375 44.535156 35.875 44.535156 32.128906 C 44.535156 28.269531 47.289062 24.519531 52.027344 24.519531 L 67.679688 24.519531 C 72.421875 24.519531 75.070312 27.9375 75.070312 32.34375 L 75.070312 95.074219 C 75.070312 100.589844 71.542969 103.671875 66.796875 103.671875 C 62.058594 103.671875 58.53125 100.589844 58.53125 95.074219 Z M 58.53125 39.734375 "/>
</g>
</svg>
