<?xml version="1.0" encoding="UTF-8"?>
<svg xmlns="http://www.w3.org/2000/svg" xmlns:xlink="http://www.w3.org/1999/xlink" width="128px" height="128px" viewBox="0 0 128 128" version="1.1">
<g id="surface1">
<path style=" stroke:none;fill-rule:nonzero;fill:rgb(23.137255%,53.333333%,76.470588%);fill-opacity:1;" d="M 128 113.777344 C 128 121.632812 121.632812 128 113.777344 128 L 14.222656 128 C 6.367188 128 0 121.632812 0 113.777344 L 0 14.222656 C 0 6.367188 6.367188 0 14.222656 0 L 113.777344 0 C 121.632812 0 128 6.367188 128 14.222656 Z M 128 113.777344 "/>
<path style=" stroke:none;fill-rule:nonzero;fill:rgb(96.078431%,97.254902%,98.039216%);fill-opacity:1;" d="M 25.644531 39.023438 L 18.683594 39.023438 C 13.023438 39.023438 10.667969 34.894531 10.667969 30.882812 C 10.667969 26.757812 13.613281 22.75 18.683594 22.75 L 35.429688 22.75 C 40.5 22.75 43.335938 26.402344 43.335938 31.117188 L 43.335938 98.230469 C 43.335938 104.125 39.558594 107.425781 34.488281 107.425781 C 29.417969 107.425781 25.644531 104.125 25.644531 98.230469 Z M 53.972656 64.734375 C 53.972656 45.507812 61.40625 21.332031 85.226562 21.332031 C 109.050781 21.332031 116.484375 45.507812 116.484375 64.734375 C 116.484375 83.953125 109.050781 108.136719 85.226562 108.136719 C 61.40625 108.136719 53.972656 83.953125 53.972656 64.734375 Z M 98.082031 64.734375 C 98.082031 55.769531 97.257812 37.367188 85.226562 37.367188 C 73.199219 37.367188 72.375 55.769531 72.375 64.734375 C 72.375 73.105469 73.199219 92.09375 85.226562 92.09375 C 97.257812 92.09375 98.082031 73.109375 98.082031 64.734375 Z M 98.082031 64.734375 "/>
</g>
</svg>
