<?xml version="1.0" encoding="UTF-8"?>
<svg xmlns="http://www.w3.org/2000/svg" xmlns:xlink="http://www.w3.org/1999/xlink" width="128px" height="128px" viewBox="0 0 128 128" version="1.1">
<g id="surface1">
<path style=" stroke:none;fill-rule:nonzero;fill:rgb(23.137255%,53.333333%,76.470588%);fill-opacity:1;" d="M 128 113.777344 C 128 121.632812 121.632812 128 113.777344 128 L 14.222656 128 C 6.367188 128 0 121.632812 0 113.777344 L 0 14.222656 C 0 6.367188 6.367188 0 14.222656 0 L 113.777344 0 C 121.632812 0 128 6.367188 128 14.222656 Z M 128 113.777344 "/>
<path style=" stroke:none;fill-rule:nonzero;fill:rgb(100%,100%,100%);fill-opacity:1;" d="M 82.082031 88.558594 C 86.9375 88.558594 90.6875 90.761719 90.6875 95.832031 C 90.6875 100.90625 86.9375 103.109375 82.75 103.109375 L 45.925781 103.109375 C 41.078125 103.109375 37.328125 100.90625 37.328125 95.832031 C 37.328125 93.523438 38.761719 91.535156 39.863281 90.210938 C 49.011719 79.300781 58.9375 69.375 67.316406 57.246094 C 69.300781 54.382812 71.175781 50.960938 71.175781 46.992188 C 71.175781 42.476562 67.757812 38.507812 63.234375 38.507812 C 50.554688 38.507812 56.621094 56.367188 46.039062 56.367188 C 40.746094 56.367188 37.988281 52.617188 37.988281 48.316406 C 37.988281 34.429688 50.335938 23.292969 63.898438 23.292969 C 77.460938 23.292969 88.371094 32.222656 88.371094 46.222656 C 88.371094 61.542969 71.285156 76.761719 61.914062 88.554688 L 82.082031 88.554688 Z M 82.082031 88.558594 "/>
</g>
</svg>
