<?xml version="1.0" encoding="UTF-8"?>
<svg xmlns="http://www.w3.org/2000/svg" xmlns:xlink="http://www.w3.org/1999/xlink" width="128px" height="128px" viewBox="0 0 128 128" version="1.1">
<g id="surface1">
<path style=" stroke:none;fill-rule:nonzero;fill:rgb(23.137255%,53.333333%,76.470588%);fill-opacity:1;" d="M 128 113.777344 C 128 121.632812 121.632812 128 113.777344 128 L 14.222656 128 C 6.367188 128 0 121.632812 0 113.777344 L 0 14.222656 C 0 6.367188 6.367188 0 14.222656 0 L 113.777344 0 C 121.632812 0 128 6.367188 128 14.222656 Z M 128 113.777344 "/>
<path style=" stroke:none;fill-rule:nonzero;fill:rgb(100%,100%,100%);fill-opacity:1;" d="M 85.722656 43.46875 C 85.722656 50.417969 82.75 56.480469 76.683594 60.335938 C 84.617188 63.980469 90.128906 71.363281 90.128906 80.070312 C 90.128906 93.300781 78.003906 104.4375 62.351562 104.4375 C 46.035156 104.4375 35.894531 92.417969 35.894531 83.710938 C 35.894531 79.414062 40.414062 76.328125 44.382812 76.328125 C 51.878906 76.328125 50.117188 89.226562 62.574219 89.226562 C 68.304688 89.226562 72.9375 84.816406 72.9375 78.972656 C 72.9375 63.539062 54.195312 74.894531 54.195312 61.882812 C 54.195312 50.3125 69.84375 58.136719 69.84375 45.898438 C 69.84375 41.707031 66.871094 38.511719 61.910156 38.511719 C 51.4375 38.511719 52.871094 49.3125 45.371094 49.3125 C 40.851562 49.3125 38.207031 45.234375 38.207031 41.15625 C 38.207031 32.558594 50 23.296875 62.238281 23.296875 C 78.117188 23.296875 85.722656 34.871094 85.722656 43.46875 Z M 85.722656 43.46875 "/>
</g>
</svg>
