<?xml version="1.0" encoding="UTF-8"?>
<svg xmlns="http://www.w3.org/2000/svg" xmlns:xlink="http://www.w3.org/1999/xlink" width="128px" height="128px" viewBox="0 0 128 128" version="1.1">
<g id="surface1">
<path style=" stroke:none;fill-rule:nonzero;fill:rgb(23.137255%,53.333333%,76.470588%);fill-opacity:1;" d="M 128 113.777344 C 128 121.632812 121.632812 128 113.777344 128 L 14.222656 128 C 6.367188 128 0 121.632812 0 113.777344 L 0 14.222656 C 0 6.367188 6.367188 0 14.222656 0 L 113.777344 0 C 121.632812 0 128 6.367188 128 14.222656 Z M 128 113.777344 "/>
<path style=" stroke:none;fill-rule:nonzero;fill:rgb(100%,100%,100%);fill-opacity:1;" d="M 38.289062 85.800781 C 32.890625 85.800781 30.574219 82.167969 30.574219 79.300781 C 30.574219 76.875 31.457031 75.546875 32.117188 74.449219 L 56.8125 29.6875 C 59.238281 25.28125 62.324219 23.296875 68.058594 23.296875 C 74.453125 23.296875 80.734375 27.375 80.734375 37.40625 L 80.734375 71.253906 L 82.609375 71.253906 C 86.910156 71.253906 90.324219 74.121094 90.324219 78.53125 C 90.324219 82.941406 86.910156 85.804688 82.609375 85.804688 L 80.734375 85.804688 L 80.734375 95.179688 C 80.734375 101.023438 78.421875 103.777344 72.800781 103.777344 C 67.179688 103.777344 64.859375 101.023438 64.859375 95.179688 L 64.859375 85.804688 L 38.289062 85.804688 Z M 64.859375 40.496094 L 64.640625 40.496094 L 49.757812 71.25 L 64.859375 71.25 Z M 64.859375 40.496094 "/>
</g>
</svg>
