<?xml version="1.0" encoding="UTF-8"?>
<svg xmlns="http://www.w3.org/2000/svg" xmlns:xlink="http://www.w3.org/1999/xlink" width="128px" height="128px" viewBox="0 0 128 128" version="1.1">
<g id="surface1">
<path style=" stroke:none;fill-rule:nonzero;fill:rgb(23.137255%,53.333333%,76.470588%);fill-opacity:1;" d="M 128 113.777344 C 128 121.632812 121.632812 128 113.777344 128 L 14.222656 128 C 6.367188 128 0 121.632812 0 113.777344 L 0 14.222656 C 0 6.367188 6.367188 0 14.222656 0 L 113.777344 0 C 121.632812 0 128 6.367188 128 14.222656 Z M 128 113.777344 "/>
<path style=" stroke:none;fill-rule:nonzero;fill:rgb(100%,100%,100%);fill-opacity:1;" d="M 58.273438 51.515625 C 60.917969 50.964844 63.785156 50.414062 66.542969 50.414062 C 79.882812 50.414062 89.363281 61 89.363281 73.894531 C 89.363281 92.304688 79.226562 104.433594 60.148438 104.433594 C 52.324219 104.433594 35.898438 99.359375 35.898438 89.660156 C 35.898438 85.582031 39.3125 82.167969 43.390625 82.167969 C 47.800781 82.167969 53.09375 89.222656 60.480469 89.222656 C 68.195312 89.222656 72.171875 81.722656 72.171875 74.78125 C 72.171875 68.167969 68.417969 63.648438 61.585938 63.648438 C 55.1875 63.648438 54.199219 67.285156 48.574219 67.285156 C 44.277344 67.285156 42.074219 63.980469 42.074219 62.105469 C 42.074219 60.671875 42.292969 59.570312 42.402344 58.355469 L 45.15625 35.089844 C 46.367188 26.492188 48.460938 24.617188 53.753906 24.617188 L 80.320312 24.617188 C 85.398438 24.617188 88.371094 27.59375 88.371094 31.5625 C 88.371094 39.171875 82.640625 39.832031 80.652344 39.832031 L 59.929688 39.832031 Z M 58.273438 51.515625 "/>
</g>
</svg>
