<?xml version="1.0" encoding="UTF-8"?>
<svg xmlns="http://www.w3.org/2000/svg" xmlns:xlink="http://www.w3.org/1999/xlink" width="128px" height="128px" viewBox="0 0 128 128" version="1.1">
<g id="surface1">
<path style=" stroke:none;fill-rule:nonzero;fill:rgb(23.137255%,53.333333%,76.470588%);fill-opacity:1;" d="M 128 113.777344 C 128 121.632812 121.632812 128 113.777344 128 L 14.222656 128 C 6.367188 128 0 121.632812 0 113.777344 L 0 14.222656 C 0 6.367188 6.367188 0 14.222656 0 L 113.777344 0 C 121.632812 0 128 6.367188 128 14.222656 Z M 128 113.777344 "/>
<path style=" stroke:none;fill-rule:nonzero;fill:rgb(100%,100%,100%);fill-opacity:1;" d="M 36.335938 77.09375 C 36.335938 60.449219 53.203125 37.078125 64.335938 26.710938 C 65.214844 25.832031 66.539062 24.949219 67.863281 24.066406 C 69.074219 23.296875 70.289062 23.296875 71.171875 23.296875 C 74.253906 23.296875 78.996094 27.375 78.996094 31.347656 C 78.996094 32.890625 78.003906 34.210938 76.683594 35.863281 C 72.273438 41.265625 65.109375 48.320312 61.46875 53.503906 L 61.6875 53.722656 C 63.671875 52.84375 66.207031 52.402344 68.636719 52.402344 C 81.867188 52.402344 91.671875 64.089844 91.671875 77.09375 C 91.671875 91.425781 80.316406 104.4375 64 104.4375 C 47.03125 104.433594 36.335938 91.757812 36.335938 77.09375 Z M 53.53125 77.09375 C 53.53125 83.265625 57.390625 88.5625 64.003906 88.5625 C 70.289062 88.5625 74.476562 83.488281 74.476562 77.09375 C 74.476562 71.253906 70.949219 65.628906 64.003906 65.628906 C 57.722656 65.628906 53.53125 70.59375 53.53125 77.09375 Z M 53.53125 77.09375 "/>
</g>
</svg>
