<?xml version="1.0" encoding="UTF-8"?>
<svg xmlns="http://www.w3.org/2000/svg" xmlns:xlink="http://www.w3.org/1999/xlink" width="128px" height="128px" viewBox="0 0 128 128" version="1.1">
<g id="surface1">
<path style=" stroke:none;fill-rule:nonzero;fill:rgb(23.137255%,53.333333%,76.470588%);fill-opacity:1;" d="M 128 113.777344 C 128 121.632812 121.632812 128 113.777344 128 L 14.222656 128 C 6.367188 128 0 121.632812 0 113.777344 L 0 14.222656 C 0 6.367188 6.367188 0 14.222656 0 L 113.777344 0 C 121.632812 0 128 6.367188 128 14.222656 Z M 128 113.777344 "/>
<path style=" stroke:none;fill-rule:nonzero;fill:rgb(100%,100%,100%);fill-opacity:1;" d="M 72.378906 39.832031 L 44.160156 39.832031 C 38.207031 39.832031 36.003906 35.976562 36.003906 32.226562 C 36.003906 28.371094 38.097656 24.617188 44.160156 24.617188 L 84.066406 24.617188 C 89.691406 24.617188 92.007812 29.6875 92.007812 32.554688 C 92.007812 34.757812 90.792969 37.074219 89.472656 39.828125 L 62.128906 95.390625 C 59.042969 101.5625 57.832031 103.765625 52.871094 103.765625 C 46.808594 103.765625 43.71875 99.136719 43.71875 95.941406 C 43.71875 94.617188 44.050781 93.628906 44.824219 92.082031 Z M 72.378906 39.832031 "/>
</g>
</svg>
