<?xml version="1.0" encoding="UTF-8"?>
<svg xmlns="http://www.w3.org/2000/svg" xmlns:xlink="http://www.w3.org/1999/xlink" width="128px" height="128px" viewBox="0 0 128 128" version="1.1">
<g id="surface1">
<path style=" stroke:none;fill-rule:nonzero;fill:rgb(23.137255%,53.333333%,76.470588%);fill-opacity:1;" d="M 128 113.777344 C 128 121.632812 121.632812 128 113.777344 128 L 14.222656 128 C 6.367188 128 0 121.632812 0 113.777344 L 0 14.222656 C 0 6.367188 6.367188 0 14.222656 0 L 113.777344 0 C 121.632812 0 128 6.367188 128 14.222656 Z M 128 113.777344 "/>
<path style=" stroke:none;fill-rule:nonzero;fill:rgb(100%,100%,100%);fill-opacity:1;" d="M 36.773438 79.300781 C 36.773438 70.480469 41.625 63.980469 48.570312 60.226562 C 43.386719 56.480469 40.191406 51.410156 40.191406 44.460938 C 40.191406 31.5625 50.886719 23.296875 64.003906 23.296875 C 76.789062 23.296875 87.929688 31.453125 87.929688 44.460938 C 87.929688 50.632812 84.839844 56.8125 79.433594 60.226562 C 86.933594 63.980469 91.230469 70.8125 91.230469 79.300781 C 91.230469 94.625 78.773438 104.433594 64 104.433594 C 48.792969 104.433594 36.773438 94.070312 36.773438 79.300781 Z M 53.972656 78.195312 C 53.972656 83.820312 57.28125 89.222656 64.003906 89.222656 C 70.289062 89.222656 74.039062 83.820312 74.039062 78.195312 C 74.039062 71.25 70.070312 67.171875 64.003906 67.171875 C 57.613281 67.171875 53.972656 72.019531 53.972656 78.195312 Z M 56.066406 46.226562 C 56.066406 51.1875 58.9375 54.601562 64.003906 54.601562 C 69.074219 54.601562 72.054688 51.1875 72.054688 46.226562 C 72.054688 41.484375 69.183594 37.84375 64.003906 37.84375 C 58.824219 37.84375 56.066406 41.484375 56.066406 46.226562 Z M 56.066406 46.226562 "/>
</g>
</svg>
