<?xml version="1.0" encoding="UTF-8"?>
<svg xmlns="http://www.w3.org/2000/svg" xmlns:xlink="http://www.w3.org/1999/xlink" width="128px" height="128px" viewBox="0 0 128 128" version="1.1">
<g id="surface1">
<path style=" stroke:none;fill-rule:nonzero;fill:rgb(23.137255%,53.333333%,76.470588%);fill-opacity:1;" d="M 128 113.777344 C 128 121.632812 121.632812 128 113.777344 128 L 14.222656 128 C 6.367188 128 0 121.632812 0 113.777344 L 0 14.222656 C 0 6.367188 6.367188 0 14.222656 0 L 113.777344 0 C 121.632812 0 128 6.367188 128 14.222656 Z M 128 113.777344 "/>
<path style=" stroke:none;fill-rule:nonzero;fill:rgb(100%,100%,100%);fill-opacity:1;" d="M 91.675781 50.632812 C 91.675781 67.28125 74.8125 90.652344 63.675781 101.015625 C 62.792969 101.898438 61.472656 102.78125 60.148438 103.664062 C 58.9375 104.433594 57.722656 104.433594 56.84375 104.433594 C 53.757812 104.433594 49.011719 100.351562 49.011719 96.382812 C 49.011719 94.839844 50.003906 93.519531 51.328125 91.863281 C 55.738281 86.460938 62.90625 79.40625 66.542969 74.226562 L 66.320312 74.003906 C 64.335938 74.886719 61.800781 75.328125 59.378906 75.328125 C 46.148438 75.328125 36.335938 63.640625 36.335938 50.632812 C 36.335938 36.300781 47.691406 23.296875 64.007812 23.296875 C 80.984375 23.296875 91.675781 35.972656 91.675781 50.632812 Z M 74.476562 50.632812 C 74.476562 44.460938 70.617188 39.167969 64.003906 39.167969 C 57.722656 39.167969 53.53125 44.238281 53.53125 50.632812 C 53.53125 56.480469 57.058594 62.101562 64.003906 62.101562 C 70.292969 62.101562 74.476562 57.136719 74.476562 50.632812 Z M 74.476562 50.632812 "/>
</g>
</svg>
